<svg width="108" height="108" viewBox="0 0 108 108" fill="none" xmlns="http://www.w3.org/2000/svg">
<g filter="url(#filter0_d)">
<circle cx="54" cy="54" r="50" fill="white"/>
<circle cx="54" cy="54" r="48" stroke="white" stroke-width="4"/>
</g>
<path d="M54 27C50.6625 27 47.3998 27.9897 44.6248 29.844C41.8497 31.6982 39.6868 34.3337 38.4095 37.4172C37.1323 40.5007 36.7981 43.8937 37.4493 47.1672C38.1004 50.4406 39.7076 53.4474 42.0676 55.8074C44.4276 58.1674 47.4344 59.7746 50.7079 60.4258C53.9813 61.0769 57.3743 60.7427 60.4578 59.4655C63.5413 58.1882 66.1768 56.0253 68.0311 53.2502C69.8853 50.4752 70.875 47.2126 70.875 43.875C70.875 39.3995 69.0971 35.1073 65.9324 31.9426C62.7678 28.7779 58.4755 27 54 27Z" fill="black"/>
<path d="M54 6.75C44.6549 6.75 35.5196 9.52116 27.7493 14.7131C19.9791 19.905 13.923 27.2844 10.3467 35.9182C6.77047 44.552 5.83477 54.0524 7.65792 63.218C9.48107 72.3836 13.9812 80.8028 20.5892 87.4108C27.1973 94.0188 35.6164 98.519 44.782 100.342C53.9476 102.165 63.448 101.23 72.0818 97.6533C80.7156 94.0771 88.0951 88.0209 93.287 80.2507C98.4789 72.4805 101.25 63.3452 101.25 54C101.236 41.4729 96.253 29.463 87.395 20.605C78.537 11.747 66.5271 6.76429 54 6.75V6.75ZM80.973 84.1253C80.9058 79.6984 79.1021 75.4751 75.9507 72.3654C72.7993 69.2556 68.5524 67.5083 64.125 67.5H43.875C39.4476 67.5083 35.2007 69.2556 32.0493 72.3654C28.8979 75.4751 27.0943 79.6984 27.027 84.1253C20.9067 78.6603 16.5906 71.4652 14.6503 63.4927C12.7101 55.5203 13.2371 47.1465 16.1617 39.4803C19.0862 31.814 24.2704 25.2169 31.0277 20.5624C37.7849 15.9079 45.7966 13.4157 54.0017 13.4157C62.2069 13.4157 70.2185 15.9079 76.9758 20.5624C83.733 25.2169 88.9172 31.814 91.8417 39.4803C94.7663 47.1465 95.2934 55.5203 93.3531 63.4927C91.4128 71.4652 87.0967 78.6603 80.9764 84.1253H80.973Z" fill="black"/>
<defs>
<filter id="filter0_d" x="0" y="0" width="108" height="108" filterUnits="userSpaceOnUse" color-interpolation-filters="sRGB">
<feFlood flood-opacity="0" result="BackgroundImageFix"/>
<feColorMatrix in="SourceAlpha" type="matrix" values="0 0 0 0 0 0 0 0 0 0 0 0 0 0 0 0 0 0 127 0"/>
<feMorphology radius="4" operator="dilate" in="SourceAlpha" result="effect1_dropShadow"/>
<feOffset/>
<feColorMatrix type="matrix" values="0 0 0 0 0 0 0 0 0 0 0 0 0 0 0 0 0 0 1 0"/>
<feBlend mode="normal" in2="BackgroundImageFix" result="effect1_dropShadow"/>
<feBlend mode="normal" in="SourceGraphic" in2="effect1_dropShadow" result="shape"/>
</filter>
</defs>
</svg>
