<svg width="108" height="108" viewBox="0 0 108 108" fill="none" xmlns="http://www.w3.org/2000/svg">
<g filter="url(#filter0_d)">
<circle cx="54" cy="54" r="50" fill="#8D8D8D"/>
<circle cx="54" cy="54" r="48" stroke="white" stroke-width="4"/>
</g>
<path d="M89.6061 83.5806C94.3632 77.857 97.6719 71.0718 99.2521 63.799C100.832 56.5262 100.638 48.9798 98.6846 41.7981C96.7315 34.6165 93.0774 28.0109 88.0315 22.5401C82.9856 17.0694 76.6962 12.8944 69.6955 10.3684C62.6948 7.84235 55.1887 7.03961 47.8121 8.02806C40.4356 9.01651 33.4056 11.7671 27.3169 16.047C21.2282 20.327 16.2599 26.0105 12.8322 32.6167C9.4046 39.2229 7.6185 46.5575 7.62502 54C7.62752 64.8192 11.4402 75.292 18.394 83.5806L18.3277 83.6369C18.5596 83.9152 18.8246 84.1537 19.0631 84.4286C19.3612 84.7698 19.6825 85.0911 19.9906 85.4224C20.9181 86.4294 21.8721 87.3966 22.8725 88.3042C23.1772 88.5825 23.4919 88.8409 23.8 89.1059C24.86 90.0201 25.9498 90.888 27.0793 91.6962C27.2251 91.7956 27.3576 91.9248 27.5033 92.0275V91.9877C35.2615 97.4473 44.5167 100.377 54.0033 100.377C63.49 100.377 72.7451 97.4473 80.5033 91.9877V92.0275C80.6491 91.9248 80.7783 91.7956 80.9273 91.6962C82.0536 90.8847 83.1467 90.0201 84.2067 89.1059C84.5148 88.8409 84.8295 88.5792 85.1342 88.3042C86.1346 87.3933 87.0886 86.4294 88.0161 85.4224C88.3241 85.0911 88.6421 84.7698 88.9436 84.4286C89.1788 84.1537 89.4471 83.9152 89.679 83.6336L89.6061 83.5806ZM54 27.5C56.9482 27.5 59.8302 28.3742 62.2815 30.0122C64.7328 31.6501 66.6434 33.9781 67.7716 36.7019C68.8998 39.4256 69.195 42.4228 68.6199 45.3143C68.0447 48.2058 66.625 50.8619 64.5403 52.9466C62.4557 55.0312 59.7996 56.4509 56.9081 57.0261C54.0166 57.6012 51.0194 57.306 48.2956 56.1778C45.5719 55.0496 43.2438 53.139 41.6059 50.6877C39.968 48.2364 39.0938 45.3544 39.0938 42.4062C39.0938 38.4529 40.6642 34.6614 43.4597 31.8659C46.2552 29.0705 50.0466 27.5 54 27.5V27.5ZM27.5232 83.5806C27.5807 79.2312 29.3482 75.0793 32.4435 72.0231C35.5387 68.9669 39.7127 67.2522 44.0625 67.25H63.9375C68.2873 67.2522 72.4614 68.9669 75.5566 72.0231C78.6518 75.0793 80.4194 79.2312 80.4768 83.5806C73.212 90.1272 63.7794 93.7502 54 93.7502C44.2207 93.7502 34.788 90.1272 27.5232 83.5806V83.5806Z" fill="black"/>
<defs>
<filter id="filter0_d" x="0" y="0" width="108" height="108" filterUnits="userSpaceOnUse" color-interpolation-filters="sRGB">
<feFlood flood-opacity="0" result="BackgroundImageFix"/>
<feColorMatrix in="SourceAlpha" type="matrix" values="0 0 0 0 0 0 0 0 0 0 0 0 0 0 0 0 0 0 127 0"/>
<feMorphology radius="4" operator="dilate" in="SourceAlpha" result="effect1_dropShadow"/>
<feOffset/>
<feColorMatrix type="matrix" values="0 0 0 0 0 0 0 0 0 0 0 0 0 0 0 0 0 0 1 0"/>
<feBlend mode="normal" in2="BackgroundImageFix" result="effect1_dropShadow"/>
<feBlend mode="normal" in="SourceGraphic" in2="effect1_dropShadow" result="shape"/>
</filter>
</defs>
</svg>
